<svg width="24" height="24" viewBox="0 0 24 24" fill="none" xmlns="http://www.w3.org/2000/svg">
<rect width="24" height="24" rx="2" fill="white"/>
<path d="M8.926 17.616C8.926 17.49 8.912 17.434 8.856 17.434L8.534 17.588C8.534 17.518 8.492 17.476 8.422 17.448L8.31 17.434C8.212 17.434 8.17 17.448 8.03 17.532C7.988 17.448 7.932 17.35 7.89 17.266C7.526 16.566 7.148 15.516 6.98 15.054C6.896 14.816 6.812 14.326 6.714 13.584C6.826 13.654 6.91 13.682 6.952 13.682C7.008 13.682 7.078 13.584 7.134 13.388C7.162 13.43 7.218 13.444 7.288 13.444C7.33 13.444 7.386 13.43 7.414 13.388L7.638 13.052L7.89 13.136H7.904C7.932 13.136 7.974 13.094 8.044 13.052C8.114 13.01 8.17 12.982 8.212 12.982L8.254 12.996C8.478 13.108 8.632 13.304 8.702 13.612C8.87 14.326 9.024 14.676 9.206 14.676C9.36 14.676 9.57 14.494 9.794 14.144C10.018 13.794 10.242 13.318 10.494 12.744C10.508 12.856 10.522 12.912 10.55 12.912C10.634 12.912 10.844 12.422 11.362 11.596C12.132 10.35 14.036 7.956 14.526 7.62C14.89 7.368 15.17 7.13 15.366 6.92C15.338 7.06 15.31 7.158 15.31 7.2C15.31 7.242 15.338 7.256 15.366 7.256L15.758 7.06V7.116C15.758 7.186 15.772 7.228 15.814 7.228C15.87 7.228 16.094 7.004 16.122 6.92L16.094 7.116L16.57 6.836L16.458 7.088C16.598 6.99 16.71 6.934 16.78 6.934C16.85 6.934 16.892 7.046 16.892 7.116C16.892 7.228 16.794 7.382 16.64 7.578C16.472 7.802 16.052 8.236 14.792 9.678C14.246 10.294 11.824 13.584 11.362 14.368L10.494 15.838C10.116 16.468 9.878 16.874 9.752 17.028C9.626 17.182 9.472 17.336 9.29 17.476L9.164 17.406L9.052 17.476L8.926 17.616Z" fill="black"/>
</svg>
